<?xml version="1.0" encoding="utf-8"?>
<?xml-stylesheet type="text/xsl" href="rss1.xsl"?>
<rss version="2.0" xmlns:atom="http://www.w3.org/2005/Atom" xmlns:content="http://purl.org/rss/1.0/modules/content/" xmlns:dc="http://purl.org/dc/elements/1.1/" xmlns:media="http://search.yahoo.com/mrss/">
<channel>
 <title>Getty</title>
 <link>http://www.gettyimg.com/</link>
 <atom:link href="http://www.gettyimg.com/" rel="self" type="application/rss+xml" />

 
                <item>
                <title><![CDATA[【HD Live Performances】HDTV - Olivia Rodrigo - all-american bitch &amp; vampire ( Live @ Saturday Night Live ) HDTV MPEG2 1080i DD5.1-ilya2129]]></title>
                <link><![CDATA[https://sharemania.us/threads/olivia-rodrigo-all-american-bitch-vampire-live-saturday-night-live-hdtv-mpeg2-1080i-dd5-1-ilya2129.233790/]]></link>
                <description><![CDATA[<article>
<blockquote class="messageText SelectQuoteContainer ugc baseHtml">
<div style="text-align: center"><img src="https://i120.fastpic.org/big/2022/1002/bd/d45b76551a682bff93a631261c4d52bd.png?r=1" class="bbCodeImage LbImage" alt="[​IMG]" data-url="https://i120.fastpic.org/big/2022/1002/bd/d45b76551a682bff93a631261c4d52bd.png?r=1" style=""><br>
<br>
<a href="https://postimg.cc/hXw36zTt" target="_blank" class="externalLink" rel="nofollow"><img src="https://i.postimg.cc/hXw36zTt/vlcsnap-2023-12-11-12h15m45s575.png" class="bbCodeImage LbImage" alt="[​IMG]" data-url="https://i.postimg.cc/hXw36zTt/vlcsnap-2023-12-11-12h15m45s575.png"></a> <a href="https://postimg.cc/fSwHmxnB" target="_blank" class="externalLink" rel="nofollow"><img src="https://i.postimg.cc/fSwHmxnB/vlcsnap-2023-12-11-12h15m46s782.png" class="bbCodeImage LbImage" alt="[​IMG]" data-url="https://i.postimg.cc/fSwHmxnB/vlcsnap-2023-12-11-12h15m46s782.png"></a> <a href="https://postimg.cc/R3HbBSLQ" target="_blank" class="externalLink" rel="nofollow"><img src="https://i.postimg.cc/R3HbBSLQ/vlcsnap-2023-12-11-12h15m48s079.png" class="bbCodeImage LbImage" alt="[​IMG]" data-url="https://i.postimg.cc/R3HbBSLQ/vlcsnap-2023-12-11-12h15m48s079.png"></a> <a href="https://postimg.cc/LYkCJx7J" target="_blank" class="externalLink" rel="nofollow"><img src="https://i.postimg.cc/LYkCJx7J/vlcsnap-2023-12-11-12h15m49s750.png" class="bbCodeImage LbImage" alt="[​IMG]" data-url="https://i.postimg.cc/LYkCJx7J/vlcsnap-2023-12-11-12h15m49s750.png"></a> <a href="https://postimg.cc/r02ZyBh6" target="_blank" class="externalLink" rel="nofollow"><img src="https://i.postimg.cc/r02ZyBh6/vlcsnap-2023-12-11-12h15m51s268.png" class="bbCodeImage LbImage" alt="[​IMG]" data-url="https://i.postimg.cc/r02ZyBh6/vlcsnap-2023-12-11-12h15m51s268.png"></a> <a href="https://postimg.cc/svg629J2" target="_blank" class="externalLink" rel="nofollow"><img src="https://i.postimg.cc/svg629J2/vlcsnap-2023-12-11-12h15m53s139.png" class="bbCodeImage LbImage" alt="[​IMG]" data-url="https://i.postimg.cc/svg629J2/vlcsnap-2023-12-11-12h15m53s139.png"></a> <a href="https://postimg.cc/NL4CYPmV" target="_blank" class="externalLink" rel="nofollow"><img src="https://i.postimg.cc/NL4CYPmV/vlcsnap-2023-12-11-12h15m57s464.png" class="bbCodeImage LbImage" alt="[​IMG]" data-url="https://i.postimg.cc/NL4CYPmV/vlcsnap-2023-12-11-12h15m57s464.png"></a> <a href="https://postimg.cc/grdtCPX8" target="_blank" class="externalLink" rel="nofollow"><img src="https://i.postimg.cc/grdtCPX8/vlcsnap-2023-12-11-12h15m59s529.png" class="bbCodeImage LbImage" alt="[​IMG]" data-url="https://i.postimg.cc/grdtCPX8/vlcsnap-2023-12-11-12h15m59s529.png"></a> <br>
​</div><br>
<div class="bbCodeBlock bbCodeCode">
<div class="type">Code:</div>
<pre>General
ID                                       : 1 (0x1)
Complete name                            : D:\Olivia Rodrigo - all-american bitch &amp; vampire ( Live @ Saturday Night Live ) HDTV MPEG2 1080i DD5.1-ilya2129.ts
Format                                   : MPEG-TS
File size                                : 393 MiB
Duration                                 : 7 min 26 s
Overall bit rate mode                    : Variable
Overall bit rate                         : 7 387 kb/s
Frame rate                               : 29.970 FPS
Movie name                               : Saturday Night Live
Law rating                               : TV-14 (DL)

Video
ID                                       : 301 (0x12D)
Menu ID                                  : 1 (0x1)
Format                                   : MPEG Video
Format version                           : Version 2
Format profile                           : Main@High
Format settings                          : CustomMatrix / BVOP
Format settings, BVOP                    : Yes
Format settings, Matrix                  : Custom
Format settings, GOP                     : Variable
Format settings, picture structure       : Frame
Codec ID                                 : 2
Duration                                 : 7 min 26 s
Bit rate mode                            : Variable
Bit rate                                 : 6 440 kb/s
Maximum bit rate                         : 17.6 Mb/s
Width                                    : 1 920 pixels
Height                                   : 1 080 pixels
Display aspect ratio                     : 16:9
Active Format Description                : Full frame 16:9 image
Frame rate                               : 29.970 (30000/1001) FPS
Color space                              : YUV
Chroma subsampling                       : 4:2:0
Bit depth                                : 8 bits
Scan type                                : Interlaced
Scan order                               : Top Field First
Compression mode                         : Lossy
Bits/(Pixel*Frame)                       : 0.104
Time code of first frame                 : 12:24:47;16
Time code source                         : Group of pictures header
GOP, Open/Closed                         : Open
Stream size                              : 343 MiB (87%)

Audio #1
ID                                       : 302 (0x12E)
Menu ID                                  : 1 (0x1)
Format                                   : AC-3
Format/Info                              : Audio Coding 3
Commercial name                          : Dolby Digital
Codec ID                                 : 129
Duration                                 : 7 min 26 s
Bit rate mode                            : Constant
Bit rate                                 : 384 kb/s
Channel(s)                               : 6 channels
Channel layout                           : L R C LFE Ls Rs
Sampling rate                            : 48.0 kHz
Frame rate                               : 31.250 FPS (1536 SPF)
Compression mode                         : Lossy
Delay relative to video                  : 29 ms
Stream size                              : 20.4 MiB (5%)
Language                                 : English
Service kind                             : Complete Main

Audio #2
ID                                       : 303 (0x12F)
Menu ID                                  : 1 (0x1)
Format                                   : AC-3
Format/Info                              : Audio Coding 3
Commercial name                          : Dolby Digital
Codec ID                                 : 129
Duration                                 : 7 min 26 s
Bit rate mode                            : Constant
Bit rate                                 : 192 kb/s
Channel(s)                               : 2 channels
Channel layout                           : L R
Sampling rate                            : 48.0 kHz
Frame rate                               : 31.250 FPS (1536 SPF)
Compression mode                         : Lossy
Delay relative to video                  : 29 ms
Stream size                              : 10.2 MiB (3%)
Language                                 : Spanish
Service kind                             : Visually Impaired

Text #1
ID                                       : 301 (0x12D)-CC1
Menu ID                                  : 1 (0x1)
Format                                   : EIA-608
Muxing mode                              : A/53 / DTVCC Transport
Muxing mode, more info                   : Muxed in Video #1
Duration                                 : 7 min 26 s
Start time (commands)                    : 9 s 855 ms
Start time                               : 9 s 922 ms
Bit rate mode                            : Constant
Stream size                              : 0.00 Byte (0%)
Type of the first event                  : RollUp

Text #2
ID                                       : 301 (0x12D)-1
Menu ID                                  : 1 (0x1)
Format                                   : EIA-708
Muxing mode                              : A/53 / DTVCC Transport
Muxing mode, more info                   : Muxed in Video #1
Duration                                 : 7 min 26 s
Bit rate mode                            : Constant
Stream size                              : 0.00 Byte (0%)

</pre>
</div><div style="text-align: center">
<div class="bbCodeBlock bbCodeVfcHH HiddenContent">
<div class="attribution type">Hidden Content:</div>
<blockquote>You must reply before you can see the hidden data contained here.</blockquote>
</div></div>
<div class="messageTextEndMarker">&nbsp;</div>
</blockquote>
</article>]]></description>
                <author><![CDATA[ilya2129]]></author>
                </item>

                
                <item>
                <title><![CDATA[【HD Live Performances】HDTV - Carly Rae Jepsen - Live @ Primavera Sound 2023 Sao Paulo HDTV H264 1080i DD5.1-ilya2129]]></title>
                <link><![CDATA[https://sharemania.us/threads/carly-rae-jepsen-live-primavera-sound-2023-sao-paulo-hdtv-h264-1080i-dd5-1-ilya2129.233788/]]></link>
                <description><![CDATA[<article>
<blockquote class="messageText SelectQuoteContainer ugc baseHtml">
Thanks<img src="styles/default/xenforo/smilies/big_smile-48.png" class="mceSmilie" alt=":)" title="Smile    :)">
<div class="messageTextEndMarker">&nbsp;</div>
</blockquote>
</article>]]></description>
                <author><![CDATA[ilya2129]]></author>
                </item>

                
                <item>
                <title><![CDATA[【Albums (lossless)】FLAC - Apink - PINK CHRISTMAS 2023 [Amazon 24bit/96kHz]]]></title>
                <link><![CDATA[https://sharemania.us/threads/apink-pink-christmas-2023-amazon-24bit-96khz.233792/]]></link>
                <description><![CDATA[<article>
<blockquote class="messageText SelectQuoteContainer ugc baseHtml">
<div style="text-align: center"><img src="https://i122.fastpic.org/big/2023/1203/d1/eb5c24c3f028c24f6a9c5acd316014d1.png" class="bbCodeImage LbImage" alt="[​IMG]" data-url="https://i122.fastpic.org/big/2023/1203/d1/eb5c24c3f028c24f6a9c5acd316014d1.png" style=""><br>
<br>
<a href="https://postimg.cc/zHWQFJVG" target="_blank" class="externalLink" rel="nofollow"><img src="https://i.postimg.cc/zHWQFJVG/vlcsnap-2023-12-11-12h25m13s017.png" class="bbCodeImage LbImage" alt="[​IMG]" data-url="https://i.postimg.cc/zHWQFJVG/vlcsnap-2023-12-11-12h25m13s017.png"></a> <a href="https://postimg.cc/qNpF2H0p" target="_blank" class="externalLink" rel="nofollow"><img src="https://i.postimg.cc/qNpF2H0p/vlcsnap-2023-12-11-12h25m19s682.png" class="bbCodeImage LbImage" alt="[​IMG]" data-url="https://i.postimg.cc/qNpF2H0p/vlcsnap-2023-12-11-12h25m19s682.png"></a> <a href="https://postimg.cc/w3snpk0Y" target="_blank" class="externalLink" rel="nofollow"><img src="https://i.postimg.cc/w3snpk0Y/vlcsnap-2023-12-11-12h25m22s484.png" class="bbCodeImage LbImage" alt="[​IMG]" data-url="https://i.postimg.cc/w3snpk0Y/vlcsnap-2023-12-11-12h25m22s484.png"></a> <a href="https://postimg.cc/F7yqfsMP" target="_blank" class="externalLink" rel="nofollow"><img src="https://i.postimg.cc/F7yqfsMP/vlcsnap-2023-12-11-12h25m25s428.png" class="bbCodeImage LbImage" alt="[​IMG]" data-url="https://i.postimg.cc/F7yqfsMP/vlcsnap-2023-12-11-12h25m25s428.png"></a> <a href="https://postimg.cc/JsK2qY4Z" target="_blank" class="externalLink" rel="nofollow"><img src="https://i.postimg.cc/JsK2qY4Z/vlcsnap-2023-12-11-12h25m28s415.png" class="bbCodeImage LbImage" alt="[​IMG]" data-url="https://i.postimg.cc/JsK2qY4Z/vlcsnap-2023-12-11-12h25m28s415.png"></a> <a href="https://postimg.cc/HVDRs7hc" target="_blank" class="externalLink" rel="nofollow"><img src="https://i.postimg.cc/HVDRs7hc/vlcsnap-2023-12-11-12h25m32s946.png" class="bbCodeImage LbImage" alt="[​IMG]" data-url="https://i.postimg.cc/HVDRs7hc/vlcsnap-2023-12-11-12h25m32s946.png"></a> <br>
<br>
Let's Sort the Whole Thing Out<br>
Run Away With Me<br>
Talking to Yourself<br>
Shy Boy<br>
Kollage<br>
Psychedelic Switch<br>
Call Me Maybe<br>
I Really Like You<br>
Want You in My Room<br>
The Loneliest Time<br>
Go Find Yourself or Whatever<br>
Cut to the Feeling<br>
​</div><br>
<div class="bbCodeBlock bbCodeCode">
<div class="type">Code:</div>
<pre>General
ID                                       : 1 (0x1)
Complete name                            : D:\Carly Rae Jepsen - Live @ Primavera Sound 2023 Sao Paulo HDTV H264 1080i DD5.1-ilya2129.ts
Format                                   : MPEG-TS
File size                                : 3.87 GiB
Duration                                 : 46 min 40 s
Overall bit rate mode                    : Variable
Overall bit rate                         : 11.9 Mb/s
Frame rate                               : 29.970 FPS

Video
ID                                       : 302 (0x12E)
Menu ID                                  : 1 (0x1)
Format                                   : AVC
Format/Info                              : Advanced Video Codec
Format profile                           : High@L4
Format settings                          : CABAC / 4 Ref Frames
Format settings, CABAC                   : Yes
Format settings, Reference frames        : 4 frames
Codec ID                                 : 27
Duration                                 : 46 min 40 s
Bit rate mode                            : Variable
Bit rate                                 : 10.5 Mb/s
Maximum bit rate                         : 18.1 Mb/s
Width                                    : 1 920 pixels
Height                                   : 1 080 pixels
Display aspect ratio                     : 16:9
Active Format Description                : Full frame 16:9 image
Frame rate                               : 29.970 (30000/1001) FPS
Standard                                 : Component
Color space                              : YUV
Chroma subsampling                       : 4:2:0
Bit depth                                : 8 bits
Scan type                                : MBAFF
Scan type, store method                  : Interleaved fields
Scan order                               : Top Field First
Bits/(Pixel*Frame)                       : 0.169
Stream size                              : 3.43 GiB (89%)
Color range                              : Limited
Color primaries                          : BT.709
Transfer characteristics                 : BT.709
Matrix coefficients                      : BT.709

Audio #1
ID                                       : 303 (0x12F)
Menu ID                                  : 1 (0x1)
Format                                   : AC-3
Format/Info                              : Audio Coding 3
Commercial name                          : Dolby Digital
Codec ID                                 : 129
Duration                                 : 46 min 40 s
Bit rate mode                            : Constant
Bit rate                                 : 384 kb/s
Channel(s)                               : 6 channels
Channel layout                           : L R C LFE Ls Rs
Sampling rate                            : 48.0 kHz
Frame rate                               : 31.250 FPS (1536 SPF)
Compression mode                         : Lossy
Delay relative to video                  : -33 ms
Stream size                              : 128 MiB (3%)
Language                                 : Portuguese
Service kind                             : Complete Main

Audio #2
ID                                       : 304 (0x130)
Menu ID                                  : 1 (0x1)
Format                                   : MPEG Audio
Format version                           : Version 1
Format profile                           : Layer 2
Codec ID                                 : 3
Duration                                 : 46 min 40 s
Bit rate mode                            : Constant
Bit rate                                 : 192 kb/s
Channel(s)                               : 2 channels
Sampling rate                            : 48.0 kHz
Frame rate                               : 41.667 FPS (1152 SPF)
Compression mode                         : Lossy
Delay relative to video                  : -33 ms
Stream size                              : 64.1 MiB (2%)
Language                                 : Portuguese

Audio #3
ID                                       : 305 (0x131)
Menu ID                                  : 1 (0x1)
Format                                   : MPEG Audio
Format version                           : Version 1
Format profile                           : Layer 2
Codec ID                                 : 3
Duration                                 : 46 min 40 s
Bit rate mode                            : Constant
Bit rate                                 : 192 kb/s
Channel(s)                               : 2 channels
Sampling rate                            : 48.0 kHz
Frame rate                               : 41.667 FPS (1152 SPF)
Compression mode                         : Lossy
Delay relative to video                  : -33 ms
Stream size                              : 64.1 MiB (2%)
Language                                 : English

</pre>
</div><div style="text-align: center">
<div class="bbCodeBlock bbCodeVfcHH HiddenContent">
<div class="attribution type">Hidden Content:</div>
<blockquote>You must reply before you can see the hidden data contained here.</blockquote>
</div></div>
<div class="messageTextEndMarker">&nbsp;</div>
</blockquote>
</article>]]></description>
                <author><![CDATA[Maco13]]></author>
                </item>

                
                <item>
                <title><![CDATA[【HD Live Performances】HDTV - Tate McRae - grave, greedy ( Live @ Saturday Night Live ) HDTV MPEG2 1080i DD5.1-ilya2129]]></title>
                <link><![CDATA[https://sharemania.us/threads/tate-mcrae-grave-greedy-live-saturday-night-live-hdtv-mpeg2-1080i-dd5-1-ilya2129.233791/]]></link>
                <description><![CDATA[<article>
<blockquote class="messageText SelectQuoteContainer ugc baseHtml">
Thanks<img src="styles/default/xenforo/smilies/big_smile-48.png" class="mceSmilie" alt=":)" title="Smile    :)">
<div class="messageTextEndMarker">&nbsp;</div>
</blockquote>
</article>]]></description>
                <author><![CDATA[ilya2129]]></author>
                </item>

                
                <item>
                <title><![CDATA[【HD Live Performances】HDTV - A Grammy Salute to 50 Years of Hip Hop HDTV MPEG2 1080i DD5.1-ilya2129]]></title>
                <link><![CDATA[https://sharemania.us/threads/a-grammy-salute-to-50-years-of-hip-hop-hdtv-mpeg2-1080i-dd5-1-ilya2129.233789/]]></link>
                <description><![CDATA[<article>
<blockquote class="messageText SelectQuoteContainer ugc baseHtml">
<img src="https://i.postimg.cc/7Lnzvrpr/4094035.jpg" class="bbCodeImage LbImage" alt="[​IMG]" data-url="https://i.postimg.cc/7Lnzvrpr/4094035.jpg" style=""> <br>
<img src="https://i.postimg.cc/FK4SnHCx/80097978.jpg" class="bbCodeImage LbImage" alt="[​IMG]" data-url="https://i.postimg.cc/FK4SnHCx/80097978.jpg" style=""> <br>
<img src="https://i.postimg.cc/7Z77V296/80097978-123.jpg" class="bbCodeImage LbImage" alt="[​IMG]" data-url="https://i.postimg.cc/7Z77V296/80097978-123.jpg" style=""> <br>
<b><br>
<br>
Introduce:</b><br>
아티스트 Apink (에이핑크)<br>
앨범 종류 싱글<br>
발매일 2023.12.11<br>
장르 발라드<br>
스타일 발라드<br>
기획사 (주)아이에스티엔터테인먼트<br>
유통사 카카오엔터테인먼트<br>
재생 시간 03:14<br>
<br>
<br>
<b>Track:</b><br>
<br>
01. PINK CHRISTMAS<br>
<br>
<br>
<div class="bbCodeBlock bbCodeVfcHH HiddenContent">
<div class="attribution type">Hidden Content:</div>
<blockquote>You must reply before you can see the hidden data contained here.</blockquote>
</div><b>Unzip the password:</b><br>
<div class="bbCodeBlock bbCodeVfcHH HiddenContent">
<div class="attribution type">Hidden Content:</div>
<blockquote>You must either reply or click 'Like' to see the hidden information contained here.</blockquote>
</div>
<div class="messageTextEndMarker">&nbsp;</div>
</blockquote>
</article>]]></description>
                <author><![CDATA[ilya2129]]></author>
                </item>

                </channel></rss>